<?xml version="1.0" encoding="utf-8"?>
<!-- Generator: Adobe Illustrator 16.0.0, SVG Export Plug-In . SVG Version: 6.00 Build 0)  -->
<!DOCTYPE svg PUBLIC "-//W3C//DTD SVG 1.1//EN" "http://www.w3.org/Graphics/SVG/1.1/DTD/svg11.dtd">
<svg version="1.1" id="Layer_1" xmlns="http://www.w3.org/2000/svg" xmlns:xlink="http://www.w3.org/1999/xlink" x="0px" y="0px"
	 width="432.415px" height="428.572px" viewBox="0 0 432.415 428.572" enable-background="new 0 0 432.415 428.572"
	 xml:space="preserve">
<circle cx="218.13" cy="214.286" r="214.286"/>
<path fill="none" d="M190.708,58.873c87.222-15.477,170.478,42.682,185.957,129.905C392.141,276,333.982,359.256,246.758,374.735
	C159.536,390.21,76.282,332.05,60.804,244.83C45.327,157.605,103.486,74.349,190.708,58.873z"/>
<text transform="matrix(-0.2259 -0.9742 0.9742 -0.2259 65.1016 264.3491)"><tspan x="0" y="0" fill="#FFFFFF" font-family="'AvantGarde-CondMedium'" font-size="41.2802">C</tspan><tspan x="21.98" y="-0.152" fill="#FFFFFF" font-family="'AvantGarde-CondMedium'" font-size="41.2802" rotate="8.125">O</tspan><tspan x="45.901" y="2.976" fill="#FFFFFF" font-family="'AvantGarde-CondMedium'" font-size="41.2802" rotate="17.555">M</tspan><tspan x="73.202" y="11.5" fill="#FFFFFF" font-family="'AvantGarde-CondMedium'" font-size="41.2802" rotate="27.812">M</tspan><tspan x="98.497" y="25.053" fill="#FFFFFF" font-family="'AvantGarde-CondMedium'" font-size="41.2802" rotate="36.84">U</tspan><tspan x="116.178" y="38.114" fill="#FFFFFF" font-family="'AvantGarde-CondMedium'" font-size="41.2802" rotate="45.046">N</tspan><tspan x="133.206" y="55.694" fill="#FFFFFF" font-family="'AvantGarde-CondMedium'" font-size="41.2802" rotate="50.885">I</tspan><tspan x="138.785" y="62.221" fill="#FFFFFF" font-family="'AvantGarde-CondMedium'" font-size="41.2802" rotate="55.558">T</tspan><tspan x="148.789" y="76.602" fill="#FFFFFF" font-family="'AvantGarde-CondMedium'" font-size="41.2802" rotate="62.205">Y</tspan><tspan x="157.931" y="94.347" fill="#FFFFFF" font-family="'AvantGarde-CondMedium'" font-size="41.2802" rotate="67.713"> </tspan><tspan x="162.321" y="104.178" fill="#FFFFFF" font-family="'AvantGarde-CondMedium'" font-size="41.2802" rotate="73.633">C</tspan><tspan x="168.514" y="125.324" fill="#FFFFFF" font-family="'AvantGarde-CondMedium'" font-size="41.2802" rotate="81.137">E</tspan><tspan x="171.766" y="144.774" fill="#FFFFFF" font-family="'AvantGarde-CondMedium'" font-size="41.2802" rotate="88.982">N</tspan><tspan x="172.036" y="169.076" fill="#FFFFFF" font-family="'AvantGarde-CondMedium'" font-size="41.2802" rotate="96.314">T</tspan><tspan x="170.222" y="186.513" fill="#FFFFFF" font-family="'AvantGarde-CondMedium'" font-size="41.2802" rotate="102.963">E</tspan><tspan x="165.93" y="205.769" fill="#FFFFFF" font-family="'AvantGarde-CondMedium'" font-size="41.2802" rotate="110.459">R</tspan><tspan x="157.919" y="226.503" fill="#FFFFFF" font-family="'AvantGarde-CondMedium'" font-size="41.2802" rotate="116.391"> </tspan><tspan x="153.349" y="236.28" fill="#FFFFFF" font-family="'AvantGarde-CondMedium'" font-size="41.2802" rotate="121.895">S</tspan><tspan x="143.566" y="253.232" fill="#FFFFFF" font-family="'AvantGarde-CondMedium'" font-size="41.2802" rotate="131.283">W</tspan><tspan x="120.917" y="277.88" fill="#FFFFFF" font-family="'AvantGarde-CondMedium'" font-size="41.2802" rotate="138.697">I</tspan><tspan x="115.037" y="283.899" fill="#FFFFFF" font-family="'AvantGarde-CondMedium'" font-size="41.2802" rotate="145.322">M</tspan><tspan x="91.58" y="300.264" fill="#FFFFFF" font-family="'AvantGarde-CondMedium'" font-size="41.2802" rotate="155.501">M</tspan><tspan x="64.999" y="311.769" fill="#FFFFFF" font-family="'AvantGarde-CondMedium'" font-size="41.2802" rotate="162.198">I</tspan><tspan x="57.092" y="314.782" fill="#FFFFFF" font-family="'AvantGarde-CondMedium'" font-size="41.2802" rotate="168.117">N</tspan><tspan x="33.457" y="319.834" fill="#FFFFFF" font-family="'AvantGarde-CondMedium'" font-size="41.2802" rotate="176.764">G</tspan><tspan x="9.072" y="320.792" fill="#FFFFFF" font-family="'AvantGarde-CondMedium'" font-size="41.2802" rotate="-177.937"> </tspan><tspan x="-1.752" y="320.651" fill="#FFFFFF" font-family="'AvantGarde-CondMedium'" font-size="41.2802" rotate="-171.208">P</tspan><tspan x="-23.493" y="317.445" fill="#FFFFFF" font-family="'AvantGarde-CondMedium'" font-size="41.2802" rotate="-162.947">O</tspan><tspan x="-46.622" y="310.434" fill="#FFFFFF" font-family="'AvantGarde-CondMedium'" font-size="41.2802" rotate="-154.268">O</tspan><tspan x="-68.448" y="299.729" fill="#FFFFFF" font-family="'AvantGarde-CondMedium'" font-size="41.2802" rotate="-146.794">L</tspan><tspan x="-83.175" y="289.941" fill="#FFFFFF" font-family="'AvantGarde-CondMedium'" font-size="41.2802" rotate="-141.708"> </tspan><tspan x="-91.828" y="283.428" fill="#FFFFFF" font-family="'AvantGarde-CondMedium'" font-size="41.2802" rotate="-136.236">•</tspan><tspan x="-106.109" y="269.495" fill="#FFFFFF" font-family="'AvantGarde-CondMedium'" font-size="41.2802" rotate="-130.781"> </tspan><tspan x="-113.437" y="261.637" fill="#FFFFFF" font-family="'AvantGarde-CondMedium'" font-size="41.2802" rotate="-124.539">O</tspan><tspan x="-126.269" y="242.891" fill="#FFFFFF" font-family="'AvantGarde-CondMedium'" font-size="41.2802" rotate="-117.676">T</tspan><tspan x="-133.794" y="228.798" fill="#FFFFFF" font-family="'AvantGarde-CondMedium'" font-size="41.2802" rotate="-111.96">T</tspan><tspan x="-139.929" y="214.094" fill="#FFFFFF" font-family="'AvantGarde-CondMedium'" font-size="41.2802" rotate="-105.825">A</tspan><tspan x="-145.546" y="196.988" fill="#FFFFFF" font-family="'AvantGarde-CondMedium'" font-size="41.2802" rotate="-96.922">W</tspan><tspan x="-149.039" y="165.509" fill="#FFFFFF" font-family="'AvantGarde-CondMedium'" font-size="41.2802" rotate="-88.119">A</tspan><tspan x="-148.34" y="147.169" fill="#FFFFFF" font-family="'AvantGarde-CondMedium'" font-size="41.2802" rotate="-83.277"> </tspan><tspan x="-147.327" y="136.4" fill="#FFFFFF" font-family="'AvantGarde-CondMedium'" font-size="41.2802" rotate="-77.8">•</tspan><tspan x="-142.925" y="116.927" fill="#FFFFFF" font-family="'AvantGarde-CondMedium'" font-size="41.2802" rotate="-72.276"> </tspan><tspan x="-140.063" y="106.59" fill="#FFFFFF" font-family="'AvantGarde-CondMedium'" font-size="41.2802" rotate="-65.96">O</tspan><tspan x="-130.654" y="85.174" fill="#FFFFFF" font-family="'AvantGarde-CondMedium'" font-size="41.2802" rotate="-57.583">N</tspan><tspan x="-117.956" y="65.381" fill="#FFFFFF" font-family="'AvantGarde-CondMedium'" font-size="41.2802" rotate="-50.431">T</tspan><tspan x="-107.405" y="52.376" fill="#FFFFFF" font-family="'AvantGarde-CondMedium'" font-size="41.2802" rotate="-44.078">A</tspan><tspan x="-93.924" y="39.074" fill="#FFFFFF" font-family="'AvantGarde-CondMedium'" font-size="41.2802" rotate="-36.956">R</tspan><tspan x="-76.621" y="26.362" fill="#FFFFFF" font-family="'AvantGarde-CondMedium'" font-size="41.2802" rotate="-31.77">I</tspan><tspan x="-70.328" y="21.918" fill="#FFFFFF" font-family="'AvantGarde-CondMedium'" font-size="41.2802" rotate="-26.17">O</tspan><tspan x="-49.007" y="11.748" fill="#FFFFFF" font-family="'AvantGarde-CondMedium'" font-size="41.2802" rotate="-20.165"> </tspan></text>
<g>
	<path fill="none" stroke="#FFFFFF" stroke-width="3" stroke-linecap="round" stroke-linejoin="round" stroke-miterlimit="10" d="
		M107.414,252.181c18.832,0,18.832,14.4,37.664,14.4c18.833,0,18.833-14.4,37.665-14.4c18.833,0,18.833,14.4,37.666,14.4
		c18.832,0,18.832-14.4,37.665-14.4c18.835,0,18.835,14.4,37.671,14.4c18.835,0,18.835-14.4,37.67-14.4"/>
</g>
<g>
	<path fill="none" stroke="#FFFFFF" stroke-width="3" stroke-linecap="round" stroke-linejoin="round" stroke-miterlimit="10" d="
		M107.414,271.514c18.832,0,18.832,14.4,37.664,14.4c18.833,0,18.833-14.4,37.665-14.4c18.833,0,18.833,14.4,37.666,14.4
		c18.832,0,18.832-14.4,37.665-14.4c18.835,0,18.835,14.4,37.671,14.4c18.835,0,18.835-14.4,37.67-14.4"/>
</g>
<line fill="none" stroke="#FFFFFF" stroke-width="2" stroke-miterlimit="10" x1="-501.334" y1="-386.286" x2="-505.334" y2="-378.286"/>
<circle fill="none" stroke="#FFFFFF" stroke-width="2" stroke-miterlimit="10" cx="217.715" cy="214.769" r="203.753"/>
<path fill="#FFFFFF" stroke="#000000" stroke-width="3.096" stroke-miterlimit="10" d="M163.666,168.588
	c-5.749,0.056-10.276,13.27-10.115,29.515l0,0c0.163,16.241,4.953,29.363,10.702,29.306l44.916-0.45
	c5.749-0.058,10.276-13.271,10.113-29.515l0,0c-0.164-16.242-4.953-29.362-10.699-29.306L163.666,168.588z"/>
<circle fill="#FFFFFF" cx="253.299" cy="198.202" r="27.363"/>
<rect x="109.666" y="206.567" width="189" height="27"/>
<g>
	<path fill="none" stroke="#FFFFFF" stroke-width="3" stroke-linecap="round" stroke-linejoin="round" stroke-miterlimit="10" d="
		M106.735,217.286c18.832,0,18.832,14.4,37.664,14.4c18.833,0,18.833-14.4,37.665-14.4c18.833,0,18.833,14.4,37.666,14.4
		s18.833-14.4,37.665-14.4c18.836,0,18.836,14.4,37.671,14.4s18.835-14.4,37.67-14.4"/>
</g>
<g>
	<path fill="none" stroke="#FFFFFF" stroke-width="3" stroke-linecap="round" stroke-linejoin="round" stroke-miterlimit="10" d="
		M106.735,234.622c18.832,0,18.832,14.4,37.664,14.4c18.833,0,18.833-14.4,37.665-14.4c18.833,0,18.833,14.4,37.666,14.4
		s18.833-14.4,37.665-14.4c18.836,0,18.836,14.4,37.671,14.4s18.835-14.4,37.67-14.4"/>
</g>
<path fill="#FFFFFF" stroke="#000000" stroke-width="2.9833" stroke-miterlimit="10" d="M185.778,175.8
	c-4.773-4.281-7.083-9.49-5.158-11.639l32.538-36.296c1.927-2.147,7.357-0.421,12.134,3.861l0,0
	c4.771,4.28,7.081,9.491,5.155,11.639l-32.539,36.295C195.984,181.809,190.555,180.082,185.778,175.8L185.778,175.8z"/>
<path fill="#FFFFFF" d="M209.461,132.499c1.909-4.535,5.495-7.353,8.011-6.293l42.504,17.888c2.516,1.059,3.01,5.592,1.099,10.128
	l0,0c-1.907,4.533-5.495,7.351-8.009,6.29l-42.504-17.887C208.045,141.567,207.554,137.035,209.461,132.499L209.461,132.499z"/>
</svg>
